<svg xmlns="http://www.w3.org/2000/svg" viewBox="0 0 1300 1215" version="1.1" desc="Created with imagetracer.js version 1.2.6" width="1300" height="1215" preserveAspectRatio="xMidYMid meet"><path fill="#111111" stroke="#111111" stroke-width="2" opacity="1" d="M 551.5 76 L 557.5 76 Q 565.5 78.5 570 84.5 L 574.5 90 L 593.5 107 L 621.5 122 L 630 129.5 Q 637.6 136.4 642 146.5 L 646 167.5 L 684 206.5 Q 689 214.5 691 225.5 L 692 241.5 Q 693.3 247.3 697.5 250 L 716.5 263 L 727.5 265 L 738.5 265 L 798.5 278 L 808.5 283 L 836 303.5 Q 840.2 308.3 839 318.5 Q 836.2 320.3 838 326.5 L 841 333.5 L 851 344.5 L 855 353.5 L 861 359.5 Q 862.2 367.3 867.5 371 L 905.5 393 L 917.5 399 L 921.5 399 Q 928.1 389.1 947.5 392 L 948.5 393 L 964.5 393 L 977.5 397 Q 986.9 400.6 992 408.5 L 999 420.5 L 1003 435.5 L 1003 446.5 L 1004 447.5 L 1004 459.5 L 1005 460.5 L 1007 489.5 Q 1010.1 499.4 1017.5 505 L 1059 545.5 L 1060.5 548 Q 1062.8 547.3 1062 549.5 L 1067 553.5 L 1068.5 556 L 1075 561.5 Q 1074.3 563.8 1076.5 563 L 1084.5 572 Q 1086.8 571.3 1086 573.5 L 1091 577 L 1092.5 580 L 1095 581.5 L 1096.5 584 L 1100 586.5 Q 1099.3 588.8 1101.5 588 L 1105.5 593 Q 1107.8 592.3 1107 594.5 L 1141.5 629 L 1189.5 664 L 1201 675.5 L 1218 698.5 L 1213.5 703 L 1190.5 718 L 727.5 1018 L 557.5 1135 L 545.5 1139 L 527.5 1139 L 527.5 1138 Q 540 1139.5 547 1135.5 L 545.5 1135 L 544.5 1136 L 527.5 1136 L 527.5 1135 L 541.5 1135 L 556.5 1128 L 738.5 1003 L 1209 697.5 Q 1198.9 680.6 1184.5 668 L 1143.5 639 L 1003 498.5 L 1000 489.5 L 999 462.5 L 998 461.5 L 996 433.5 L 989 415.5 L 980.5 406 L 962.5 399 L 934.5 398 L 927.5 403 L 918.5 406 L 908.5 402 L 863.5 376 L 858 370.5 L 856 363.5 L 850 357.5 L 846 348.5 Q 837.8 342.2 833 332.5 L 832 329.5 L 832 309.5 L 827.5 304 Q 815.2 299.3 807.5 290 L 795.5 284 L 735.5 271 L 725.5 271 L 713.5 269 L 690 251.5 L 686 243.5 L 684 224.5 L 679 210.5 L 641 171.5 L 638 163.5 L 636 149.5 Q 630.9 136.6 620.5 129 L 592.5 114 Q 574.9 101.6 561.5 85 Q 558.9 81.1 551.5 82 L 536.5 86 L 522.5 87 L 521.5 88 L 445.5 98 L 438.5 100 L 431.5 100 L 389.5 107 L 382.5 107 L 361.5 111 L 354.5 111 L 314.5 117 L 291.5 128 L 276.5 128 L 275.5 127 L 253.5 125 L 247.5 127 L 226 145.5 L 219 160.5 L 219 168.5 Q 224 176.5 222 191.5 L 220 203.5 L 223 214.5 L 233 236.5 Q 235.5 248 234 263.5 L 237 271 L 247.5 275 L 262.5 269 L 273.5 269 Q 278.5 272 280 278.5 L 281 307.5 Q 283.3 318.2 289 325.5 L 290 334.5 L 288 338 L 284.5 340 L 264.5 340 L 263.5 339 L 251.5 339 L 250.5 338 L 237.5 338 L 236.5 337 L 218.5 336 L 217.5 337 L 202.5 337 L 201.5 338 L 185.5 338 L 166.5 344 L 138.5 365 L 121.5 381 Q 103.9 388.9 92 402.5 L 92 407.5 L 97 419.5 L 97 429.5 L 87 449.5 Q 90.2 451.8 89 458.5 L 88 464.5 L 90 468.5 L 93 483.5 L 110 523.5 L 112 530.5 L 112 539.5 L 109 545.5 L 109 561.5 L 110 562.5 L 113 604.5 L 115 615.5 L 116 639.5 L 108.5 648 L 106 649.5 Q 101.2 656.7 103 670.5 Q 104.3 680.7 110.5 686 Q 117.1 690.4 128.5 690 L 147.5 698 L 169.5 700 Q 184.1 706.9 194 718.5 Q 197 721.5 197 727.5 L 193 741.5 L 186.5 748 Q 173.3 753.3 165.5 764 L 148 770 Q 145.4 772.3 146 778.5 L 153 795.5 L 153 800.5 L 148 813.5 L 147 823.5 L 156.5 828 L 182.5 830 Q 190.8 826.8 202.5 827 L 215.5 838 Q 219.7 842.3 229.5 841 Q 231.2 838.2 237.5 840 L 242 843.5 L 251 858.5 L 252 866.5 Q 242.8 876.8 239 892.5 L 242 898.5 L 258 916.5 L 266 929.5 Q 272.2 936.8 270 952.5 L 262 978.5 L 262 1005.5 L 263 1006.5 L 264 1042.5 L 263 1043.5 L 259 1076.5 L 261.5 1081 L 393.5 1098 L 424.5 1122 L 430.5 1124 L 445.5 1115 L 462.5 1115 Q 464.5 1118 471.5 1116 L 475.5 1118 L 509.5 1126 L 522.5 1130 L 525 1132.5 L 524 1137 L 467.5 1122 L 445.5 1122 L 433.5 1130 L 427.5 1131 L 390.5 1104 L 347.5 1099 L 346.5 1098 L 313.5 1095 L 307.5 1093 L 291.5 1092 L 283.5 1090 L 266.5 1089 L 260.5 1088 L 254 1083.5 L 253 1069.5 L 255 1063.5 L 258 1033.5 L 257 1032.5 L 257 1010.5 L 256 1009.5 L 256 987.5 L 255 983.5 Q 257.2 967.2 263 954.5 L 264 941.5 L 258 928.5 L 235 899.5 L 232 891.5 Q 236.3 875.3 246 864.5 L 244 858.5 L 237 847 L 219.5 847 Q 210.8 843.8 205 837.5 L 202.5 834 Q 192.1 833.1 185.5 836 L 162.5 836 L 149.5 833 L 142 828.5 L 140 823.5 L 142 811.5 L 146 801.5 L 146 794.5 L 140 781.5 L 140 771.5 L 144.5 765 L 165 757 L 171.5 749 Q 181.4 745.9 187 738.5 Q 190.6 733.6 190 724.5 L 182.5 716 L 166.5 706 L 149.5 705 L 126.5 696 L 114.5 695 Q 106.9 693.1 103 687.5 Q 94.2 676.9 97 654.5 L 102.5 644 L 110 637.5 L 108 611.5 L 107 610.5 L 107 599.5 L 106 598.5 L 106 587.5 L 105 586.5 L 105 575.5 L 104 574.5 L 104 564.5 L 103 563.5 L 103 542.5 Q 106.7 540.3 106 533.5 L 102 520.5 L 85 479.5 Q 84.6 467.4 80 459.5 L 80 450.5 L 90 429.5 L 91 422.5 L 86 410.5 L 86 400.5 L 94.5 391 L 120.5 374 Q 142 351 170.5 335 L 190.5 331 L 230.5 330 L 231.5 331 Q 244.7 329.8 253.5 333 L 264.5 333 L 265.5 334 L 283 334 L 282 325.5 L 275 310.5 L 275 294.5 Q 272.2 288.3 273 278.5 L 270.5 275 L 265.5 275 L 250.5 281 L 243.5 281 L 232 274.5 L 228 267.5 Q 229.5 252 227 240.5 L 215 210.5 L 214 195.5 Q 217.3 189.8 216 179.5 Q 212.4 173.1 212 163.5 Q 215.4 142.9 229.5 133 L 246.5 120 Q 252.7 117.3 263.5 119 L 277.5 122 L 289.5 122 L 309.5 112 L 316.5 110 L 526.5 81 L 539.5 78 L 546.5 78 L 551.5 76 Z M 550 79 L 550 80 L 559 80 L 550 79 Z M 547 80 L 547 81 L 549 81 L 547 80 Z M 540 81 L 540 82 L 545 82 L 540 81 Z M 533 82 L 533 83 L 538 83 L 533 82 Z M 526 83 L 526 84 L 531 84 L 526 83 Z M 519 84 L 519 85 L 524 85 L 519 84 Z M 512 85 L 512 86 L 516 86 L 512 85 Z M 506 86 L 506 87 L 509 87 L 506 86 Z M 499 87 L 499 88 L 502 88 L 499 87 Z M 492 88 L 492 89 L 495 89 L 492 88 Z M 570 88 L 569 90 L 573 92 L 570 88 Z M 485 89 L 485 90 L 489 90 L 485 89 Z M 477 90 L 477 91 L 482 91 L 477 90 Z M 470 91 L 470 92 L 475 92 L 470 91 Z M 463 92 L 463 93 L 468 93 L 463 92 Z M 456 93 L 456 94 L 461 94 L 456 93 Z M 449 94 L 449 95 L 453 95 L 449 94 Z M 443 95 L 443 96 L 446 96 L 443 95 Z M 436 96 L 436 97 L 439 97 L 436 96 Z M 428 97 L 428 98 L 432 98 L 428 97 Z M 422 98 L 422 99 L 425 99 L 422 98 Z M 415 99 L 415 100 L 418 100 L 415 99 Z M 407 100 L 407 101 L 412 101 L 407 100 Z M 400 101 L 400 102 L 405 102 L 400 101 Z M 393 102 L 393 103 L 398 103 L 393 102 Z M 386 103 L 386 104 L 391 104 L 386 103 Z M 379 104 L 379 105 L 384 105 L 379 104 Z M 373 105 L 373 106 L 376 106 L 373 105 Z M 366 106 L 366 107 L 369 107 L 366 106 Z M 359 107 L 359 108 L 362 108 L 359 107 Z M 352 108 L 352 109 L 355 109 L 352 108 Z M 345 109 L 345 110 L 349 110 L 345 109 Z M 337 110 L 337 111 L 342 111 L 337 110 Z M 330 111 L 330 112 L 335 112 L 330 111 Z M 323 112 L 323 113 L 328 113 L 323 112 Z M 316 113 L 316 114 L 321 114 L 316 113 Z M 312 114 L 312 115 L 314 115 L 312 114 Z M 250 122 L 250 123 L 265 123 L 250 122 Z M 267 123 L 267 124 L 273 124 L 267 123 Z M 275 124 L 275 125 L 281 125 L 275 124 Z M 289 124 L 289 125 L 292 125 L 289 124 Z M 284 125 L 284 126 L 287 126 L 284 125 Z M 629 132 L 628 134 L 630 135 L 629 132 Z M 639 146 L 638 149 L 639 149 L 639 146 Z M 640 149 L 639 153 L 640 153 L 640 149 Z M 218 154 L 217 157 L 218 157 L 218 154 Z M 641 154 L 640 158 L 641 158 L 641 154 Z M 217 157 L 216 161 L 217 161 L 217 157 Z M 642 160 L 641 164 L 642 164 L 642 160 Z M 216 162 L 215 168 L 216 168 L 216 162 Z M 643 165 L 642 168 L 643 168 L 643 165 Z M 217 169 L 216 172 L 217 172 L 217 169 Z M 219 176 L 218 179 L 219 179 L 219 176 Z M 652 177 L 651 179 L 657 184 L 652 177 Z M 219 188 L 218 192 L 219 192 L 219 188 Z M 218 194 L 217 198 L 218 198 L 218 194 Z M 218 204 L 217 207 L 218 207 L 218 204 Z M 219 208 L 218 211 L 219 211 L 219 208 Z M 687 221 L 686 224 L 687 224 L 687 221 Z M 688 225 L 687 234 L 688 234 L 688 225 Z M 689 236 L 688 241 L 689 241 L 689 236 Z M 230 237 L 229 240 L 230 240 L 230 237 Z M 231 242 L 230 247 L 231 247 L 231 242 Z M 690 242 L 689 245 L 690 245 L 690 242 Z M 232 263 L 231 267 L 232 267 L 232 263 Z M 714 265 L 714 266 L 716 266 L 714 265 Z M 718 266 L 718 267 L 722 267 L 718 266 Z M 726 267 L 726 268 L 729 268 L 726 267 Z M 737 268 L 737 269 L 739 269 L 737 268 Z M 742 269 L 742 270 L 744 270 L 742 269 Z M 746 270 L 746 271 L 749 271 L 746 270 Z M 751 271 L 751 272 L 753 272 L 751 271 Z M 263 272 L 263 273 L 265 273 L 263 272 Z M 755 272 L 755 273 L 758 273 L 755 272 Z M 760 273 L 760 274 L 763 274 L 760 273 Z M 765 274 L 765 275 L 767 275 L 765 274 Z M 769 275 L 769 276 L 772 276 L 769 275 Z M 252 276 L 252 277 L 254 277 L 252 276 Z M 774 276 L 774 277 L 777 277 L 774 276 Z M 244 277 L 244 278 L 251 278 L 244 277 Z M 779 277 L 779 278 L 781 278 L 779 277 Z M 277 278 L 276 287 L 277 287 L 277 278 Z M 783 278 L 783 279 L 786 279 L 783 278 Z M 788 279 L 788 280 L 790 280 L 788 279 Z M 792 280 L 792 281 L 795 281 L 792 280 Z M 797 281 L 797 282 L 799 282 L 797 281 Z M 278 290 L 277 306 L 278 306 L 278 290 Z M 279 308 L 278 312 L 279 312 L 279 308 Z M 836 310 L 835 319 L 836 319 L 836 310 Z M 836 327 L 835 330 L 836 330 L 836 327 Z M 287 329 L 286 334 L 287 334 L 287 329 Z M 209 333 L 209 334 L 232 334 L 209 333 Z M 191 334 L 191 335 L 206 335 L 191 334 Z M 234 334 L 234 335 L 246 335 L 234 334 Z M 182 335 L 182 336 L 187 336 L 182 335 Z M 249 335 L 249 336 L 259 336 L 249 335 Z M 178 336 L 178 337 L 180 337 L 178 336 Z M 262 336 L 262 337 L 273 337 L 262 336 Z M 283 336 L 283 337 L 285 337 L 283 336 Z M 174 337 L 174 338 L 176 338 L 174 337 Z M 846 343 L 847 345 Q 848 342 846 343 Z M 861 366 L 860 369 L 861 369 L 861 366 Z M 932 395 L 932 396 L 935 396 L 932 395 Z M 940 395 L 940 396 L 960 396 L 940 395 Z M 963 396 L 963 397 L 965 397 L 963 396 Z M 919 402 L 919 403 L 921 403 L 919 402 Z M 89 403 L 88 407 L 89 407 L 89 403 Z M 90 408 L 89 411 L 90 411 L 90 408 Z M 94 419 L 93 424 L 94 424 L 94 419 Z M 997 423 L 996 426 L 997 426 L 997 423 Z M 94 425 L 93 430 L 94 430 L 94 425 Z M 998 427 L 997 430 L 998 430 L 998 427 Z M 999 431 L 998 434 L 999 434 L 999 431 Z M 1000 435 L 999 438 L 1000 438 L 1000 435 Z M 1001 444 L 1000 451 L 1001 451 L 1001 444 Z M 85 452 L 84 458 L 85 458 L 85 452 Z M 1002 453 L 1001 463 L 1002 463 L 1002 453 Z M 85 461 L 84 464 L 85 464 L 85 461 Z M 86 464 L 85 467 L 86 467 L 86 464 Z M 1003 464 L 1002 479 L 1003 479 L 1003 464 Z M 87 468 L 86 471 L 87 471 L 87 468 Z M 88 472 L 87 475 L 88 475 L 88 472 Z M 89 477 L 88 480 L 89 480 L 89 477 Z M 1004 481 L 1003 489 L 1004 489 L 1004 481 Z M 1005 490 L 1004 493 L 1005 493 L 1005 490 Z M 101 508 L 100 511 L 101 511 L 101 508 Z M 107 523 L 106 526 L 107 526 L 107 523 Z M 109 530 L 108 533 L 109 533 L 109 530 Z M 110 534 L 109 537 L 110 537 L 110 534 Z M 107 542 L 106 567 L 107 567 L 107 542 Z M 1061 551 Q 1059 554 1062 553 L 1061 551 Z M 1066 556 Q 1064 559 1067 558 L 1066 556 Z M 108 572 L 107 576 L 108 576 L 108 572 Z M 1082 572 L 1081 574 L 1084 575 L 1082 572 Z M 1085 575 L 1084 577 L 1088 579 L 1085 575 Z M 1090 580 L 1089 582 L 1092 583 L 1090 580 Z M 109 583 L 108 587 L 109 587 L 109 583 Z M 1094 584 Q 1092 587 1095 586 L 1094 584 Z M 110 592 L 109 599 L 110 599 L 110 592 Z M 1102 592 Q 1100 595 1103 594 L 1102 592 Z M 1105 595 L 1104 597 L 1106 598 L 1105 595 Z M 1108 599 L 1114 606 L 1114 605 L 1108 599 Z M 111 602 L 110 611 L 111 611 L 111 602 Z M 1116 607 L 1119 611 L 1119 610 L 1116 607 Z M 1120 611 L 1122 614 L 1122 613 L 1120 611 Z M 112 613 L 111 621 L 112 621 L 112 613 Z M 1123 614 L 1126 618 L 1126 617 L 1123 614 Z M 1128 619 L 1134 626 L 1134 625 L 1128 619 Z M 113 623 L 112 633 L 113 633 L 113 623 Z M 1136 627 L 1140 632 L 1141 632 L 1136 627 Z M 114 635 L 113 638 L 114 638 L 114 635 Z M 101 654 L 100 660 L 101 660 L 101 654 Z M 101 669 L 100 674 L 101 674 L 101 669 Z M 102 675 L 101 678 L 102 678 L 102 675 Z M 115 691 L 115 692 L 117 692 L 115 691 Z M 119 692 L 119 693 L 125 693 L 119 692 Z M 1214 697 L 1212 700 L 1214 699 L 1214 697 Z M 146 700 L 146 701 L 148 701 L 146 700 Z M 150 701 L 150 702 L 157 702 L 150 701 Z M 160 702 L 160 703 L 165 703 L 160 702 Z M 194 724 L 193 729 L 194 729 L 194 724 Z M 193 730 L 192 734 L 193 734 L 193 730 Z M 168 757 L 166 760 L 168 759 L 168 757 Z M 151 765 L 151 766 L 153 766 L 151 765 Z M 144 771 L 143 775 L 144 775 L 144 771 Z M 144 778 L 143 782 L 144 782 L 144 778 Z M 150 795 L 149 801 L 150 801 L 150 795 Z M 149 802 L 148 805 L 149 805 L 149 802 Z M 146 811 L 145 814 L 146 814 L 146 811 Z M 145 814 L 144 821 L 145 821 L 145 814 Z M 145 825 L 144 827 L 147 828 L 145 825 Z M 153 830 L 153 831 L 156 831 L 153 830 Z M 195 830 L 195 831 L 203 831 L 195 830 Z M 158 831 L 158 832 L 162 832 L 158 831 Z M 189 831 L 189 832 L 193 832 L 189 831 Z M 164 832 L 164 833 L 177 833 L 164 832 Z M 181 832 L 181 833 L 187 833 L 181 832 Z M 230 843 L 230 844 L 237 844 L 230 843 Z M 248 858 L 247 861 L 248 861 L 248 858 Z M 249 862 L 248 867 L 249 867 L 249 862 Z M 237 887 L 236 890 L 237 890 L 237 887 Z M 267 938 L 266 954 L 267 954 L 267 938 Z M 266 954 L 265 958 L 266 958 L 266 954 Z M 263 965 L 262 968 L 263 968 L 263 965 Z M 261 972 L 260 975 L 261 975 L 261 972 Z M 260 975 L 259 978 L 260 978 L 260 975 Z M 259 979 L 258 999 L 259 999 L 259 979 Z M 260 1006 L 259 1014 L 260 1014 L 260 1006 Z M 261 1028 L 260 1036 L 261 1036 L 261 1028 Z M 261 1039 L 260 1043 L 261 1043 L 261 1039 Z M 260 1046 L 259 1050 L 260 1050 L 260 1046 Z M 259 1053 L 258 1059 L 259 1059 L 259 1053 Z M 258 1061 L 257 1067 L 258 1067 L 258 1061 Z M 257 1068 L 256 1081 L 257 1081 L 257 1068 Z M 258 1081 Q 256 1084 259 1083 L 258 1081 Z M 262 1084 L 262 1085 L 264 1085 L 262 1084 Z M 267 1085 L 267 1086 L 272 1086 L 267 1085 Z M 276 1086 L 276 1087 L 279 1087 L 276 1086 Z M 284 1087 L 284 1088 L 287 1088 L 284 1087 Z M 291 1088 L 291 1089 L 295 1089 L 291 1088 Z M 299 1089 L 299 1090 L 303 1090 L 299 1089 Z M 306 1090 L 306 1091 L 312 1091 L 306 1090 Z M 314 1091 L 314 1092 L 320 1092 L 314 1091 Z M 322 1092 L 322 1093 L 328 1093 L 322 1092 Z M 331 1093 L 331 1094 L 336 1094 L 331 1093 Z M 339 1094 L 339 1095 L 344 1095 L 339 1094 Z M 348 1095 L 348 1096 L 351 1096 L 348 1095 Z M 355 1096 L 355 1097 L 359 1097 L 355 1096 Z M 363 1097 L 363 1098 L 366 1098 L 363 1097 Z M 371 1098 L 371 1099 L 375 1099 L 371 1098 Z M 378 1099 L 378 1100 L 383 1100 L 378 1099 Z M 386 1100 L 386 1101 L 390 1101 L 386 1100 Z M 446 1118 L 446 1119 L 463 1119 L 446 1118 Z M 469 1119 L 469 1120 L 471 1120 L 469 1119 Z M 473 1120 L 473 1121 L 475 1121 L 473 1120 Z M 477 1121 L 477 1122 L 479 1122 L 477 1121 Z M 481 1122 L 481 1123 L 483 1123 L 481 1122 Z M 484 1123 L 484 1124 L 487 1124 L 484 1123 Z M 488 1124 L 488 1125 L 490 1125 L 488 1124 Z M 492 1125 L 492 1126 L 494 1126 L 492 1125 Z M 496 1126 L 496 1127 L 498 1127 L 496 1126 Z M 429 1127 L 429 1128 L 431 1128 L 429 1127 Z M 500 1127 L 500 1128 L 502 1128 L 500 1127 Z M 504 1128 L 504 1129 L 506 1129 L 504 1128 Z M 507 1129 L 507 1130 L 509 1130 L 507 1129 Z M 511 1130 L 511 1131 L 513 1131 L 511 1130 Z M 515 1131 L 515 1132 L 517 1132 L 515 1131 Z " stroke-linejoin="round" stroke-linecap="round"/></svg>